<?xml version="1.0" encoding="UTF-8"?>
<svg id="_レイヤー_1" data-name="レイヤー 1" xmlns="http://www.w3.org/2000/svg" viewBox="0 0 269.2919921875 236.89306640625">
  <defs>
    <style>
      .cls-1 {
        fill: #00a0e9;
        stroke-width: 0px;
      }
    </style>
  </defs>
  <path class="cls-1" d="M134.6455078125,0C60.4013671875,0,0,60.4013671875,0,134.64501953125c0,31.630859375,11.18701171875,62.36962890625,31.5009765625,86.552734375l.00250244140625-.0020751953125c7.54388427734375,8.989501953125,18.13592529296875,14.503173828125,29.82562255859375,15.5255126953125,1.3076171875.115234375,2.60888671875.171875,3.90576171875.171875,10.30126953125,0,20.18115234375-3.5830078125,28.16650390625-10.283203125,9.9649658203125-8.36285400390625,15.68487548828125-20.6243896484375,15.69451904296875-33.642822265625,0-.0048828125.000732421875-.0096435546875.000732421875-.0145263671875,0-3.913818359375-3.17279052734375-7.08660888671875-7.08660888671875-7.08660888671875-3.9127197265625,0-7.0845947265625,3.17095947265625-7.08642578125,7.08331298828125h-.000244140625c-.0048828125,8.8251953125-3.88037109375,17.13671875-10.6328125,22.80322265625-6.09033203125,5.1103515625-13.80419921875,7.5478515625-21.7255859375,6.849609375-7.919921875-.6923828125-15.09619140625-4.4287109375-20.20654296875-10.51904296875l-5.5350341796875,4.6441650390625,5.5301513671875-4.6451416015625c-18.17236328125-21.63427734375-28.1806640625-49.13525390625-28.1806640625-77.43701171875,0-66.4287109375,54.0439453125-120.47216796875,120.47265625-120.47216796875s120.47265625,54.04345703125,120.47265625,120.47216796875c0,28.30126953125-10.0078125,55.802734375-28.1806640625,77.43701171875l5.10919189453125,4.29193115234375-5.11407470703125-4.29095458984375c-10.5478515625,12.57080078125-29.359375,14.21826171875-41.931640625,3.669921875-6.7529296875-5.6669921875-10.6279296875-13.978515625-10.6328125-22.80419921875h-.00054931640625c-.0020751953125-3.91204833984375-3.17388916015625-7.08282470703125-7.08642578125-7.08282470703125-3.913818359375,0-7.08660888671875,3.17279052734375-7.08660888671875,7.08660888671875,0,.0013427734375.00018310546875.002685546875.00018310546875.0040283203125h-.00042724609375c.0078125,13.0224609375,5.728515625,25.2890625,15.6962890625,33.6533203125,8.216796875,6.89453125,18.236328125,10.259765625,28.2060546875,10.259765625,12.5465087890625,0,25.01275634765625-5.3338623046875,33.6904296875-15.6734619140625l.001953125.0015869140625c20.3154296875-24.18359375,31.5029296875-54.921875,31.5029296875-86.552734375C269.2919921875,60.4013671875,208.8896484375,0,134.6455078125,0Z"/>
  <path class="cls-1" d="M171.14483642578125,47.41497802734375c-3.913818359375,0-7.08660888671875,3.17279052734375-7.08660888671875,7.08660888671875v93.5433349609375h14.1732177734375V54.5015869140625c0-3.913818359375-3.17279052734375-7.08660888671875-7.08660888671875-7.08660888671875Z"/>
  <path class="cls-1" d="M97.34600830078125,47.41497802734375c-3.913818359375,0-7.08660888671875,3.17279052734375-7.08660888671875,7.08660888671875v93.5433349609375h14.1732177734375V54.5015869140625c0-3.913818359375-3.17279052734375-7.08660888671875-7.08660888671875-7.08660888671875Z"/>
  <path class="cls-1" d="M205.51171875,82.0458984375H63.7794189453125c-3.913818359375,0-7.08660888671875,3.17279052734375-7.08660888671875,7.08660888671875s3.17279052734375,7.08660888671875,7.08660888671875,7.08660888671875h141.7322998046875c3.913818359375,0,7.08660888671875-3.17279052734375,7.08660888671875-7.08660888671875s-3.17279052734375-7.08660888671875-7.08660888671875-7.08660888671875Z"/>
  <path class="cls-1" d="M219.6849365234375,148.044921875H49.606201171875c-3.913818359375,0-7.08660888671875,3.17279052734375-7.08660888671875,7.08660888671875s3.17279052734375,7.08660888671875,7.08660888671875,7.08660888671875h170.0787353515625c3.91387939453125,0,7.08660888671875-3.17279052734375,7.08660888671875-7.08660888671875s-3.1727294921875-7.08660888671875-7.08660888671875-7.08660888671875Z"/>
</svg>